<svg width="22" height="22" viewBox="0 0 22 22" fill="none" xmlns="http://www.w3.org/2000/svg">
<path d="M10.533 2.55664H7.10561C4.28686 2.55664 2.51953 4.55222 2.51953 7.37739V14.9986C2.51953 17.8237 4.27861 19.8193 7.10561 19.8193H15.1943C18.0222 19.8193 19.7813 17.8237 19.7813 14.9986V11.3062" stroke="#545454" stroke-width="1.5" stroke-linecap="round" stroke-linejoin="round"/>
<path fill-rule="evenodd" clip-rule="evenodd" d="M8.09012 10.0111L14.9404 3.16086C15.7938 2.30836 17.177 2.30836 18.0305 3.16086L19.146 4.27644C19.9995 5.12986 19.9995 6.51403 19.146 7.36653L12.2628 14.2498C11.8897 14.6229 11.3837 14.8328 10.8557 14.8328H7.42188L7.50804 11.3678C7.52087 10.8581 7.72896 10.3723 8.09012 10.0111Z" stroke="#545454" stroke-width="1.5" stroke-linecap="round" stroke-linejoin="round"/>
<path d="M13.8984 4.21875L18.0839 8.40425" stroke="#545454" stroke-width="1.5" stroke-linecap="round" stroke-linejoin="round"/>
</svg>
