<svg width="10" height="10" viewBox="0 0 10 10" fill="none" xmlns="http://www.w3.org/2000/svg">
<path fill-rule="evenodd" clip-rule="evenodd" d="M1.19093 9.996C0.88595 9.996 0.580971 9.88004 0.349059 9.64654C-0.116353 9.18113 -0.116353 8.42821 0.349059 7.9628L7.96085 0.351012C8.42626 -0.1144 9.17918 -0.1144 9.64459 0.351012C10.11 0.816424 10.11 1.56934 9.64459 2.03475L2.0328 9.64654C1.80089 9.88004 1.49591 9.996 1.19093 9.996Z" fill="#545454"/>
<path fill-rule="evenodd" clip-rule="evenodd" d="M8.80907 10.002C8.50409 10.002 8.19911 9.88603 7.9672 9.65253L0.349059 2.0328C-0.116353 1.56739 -0.116353 0.814471 0.349059 0.349059C0.816059 -0.116353 1.56898 -0.116353 2.0328 0.349059L9.65094 7.96879C10.1164 8.4342 10.1164 9.18712 9.65094 9.65253C9.41903 9.88603 9.11246 10.002 8.80907 10.002Z" fill="#545454"/>
</svg>
