<svg width="14" height="16" viewBox="0 0 14 16" fill="none" xmlns="http://www.w3.org/2000/svg">
<mask id="mask0_41726_23191" style="mask-type:luminance" maskUnits="userSpaceOnUse" x="0" y="0" width="14" height="16">
<path fill-rule="evenodd" clip-rule="evenodd" d="M0.359375 0.5H13.9451V15.5H0.359375V0.5Z" fill="white"/>
</mask>
<g mask="url(#mask0_41726_23191)">
<path fill-rule="evenodd" clip-rule="evenodd" d="M4.20688 1.625C2.48895 1.625 1.37831 2.92475 1.37831 4.937V11.063C1.37831 13.0752 2.48895 14.375 4.20688 14.375H10.095C11.8149 14.375 12.9262 13.0752 12.9262 11.063V4.937C12.9262 2.92475 11.8149 1.625 10.0963 1.625H4.20688ZM10.095 15.5H4.20688C1.90544 15.5 0.359375 13.7165 0.359375 11.063V4.937C0.359375 2.2835 1.90544 0.5 4.20688 0.5H10.0963C12.3984 0.5 13.9452 2.2835 13.9452 4.937V11.063C13.9452 13.7165 12.3984 15.5 10.095 15.5Z" fill="#40C7E6"/>
</g>
<path fill-rule="evenodd" clip-rule="evenodd" d="M7.15009 11.5625C6.86887 11.5625 6.64062 11.3105 6.64062 11V8C6.64062 7.6895 6.86887 7.4375 7.15009 7.4375C7.43132 7.4375 7.65956 7.6895 7.65956 8V11C7.65956 11.3105 7.43132 11.5625 7.15009 11.5625Z" fill="#40C7E6"/>
<path fill-rule="evenodd" clip-rule="evenodd" d="M7.15144 5.90234C6.77579 5.90234 6.46875 5.56709 6.46875 5.15234C6.46875 4.73759 6.76968 4.40234 7.14464 4.40234H7.15144C7.52708 4.40234 7.83073 4.73759 7.83073 5.15234C7.83073 5.56709 7.52708 5.90234 7.15144 5.90234Z" fill="#40C7E6"/>
</svg>
